<svg width="178" height="30" viewBox="0 0 178 30" fill="none" xmlns="http://www.w3.org/2000/svg">
<path d="M10.272 24.288L0.12 18.384V15.432L10.272 9.552V13.488L4.368 16.896L10.272 20.328V24.288ZM36.7358 24V6.72H52.6718V10.2H40.2398V13.608H50.2478V17.112H40.2398V20.52H52.6718V24H36.7358ZM82.5188 24C81.8788 24 81.2948 23.848 80.7668 23.544C80.2548 23.224 79.8388 22.808 79.5188 22.296C79.2148 21.768 79.0628 21.184 79.0628 20.544V10.176C79.0628 9.536 79.2148 8.96 79.5188 8.448C79.8388 7.92 80.2548 7.504 80.7668 7.2C81.2948 6.88 81.8788 6.72 82.5188 6.72H92.8628C93.5028 6.72 94.0788 6.88 94.5908 7.2C95.1188 7.504 95.5428 7.92 95.8628 8.448C96.1828 8.96 96.3428 9.536 96.3428 10.176V11.664H92.8388V10.344C92.8388 10.296 92.8228 10.264 92.7908 10.248C92.7748 10.216 92.7428 10.2 92.6948 10.2H82.6628C82.6148 10.2 82.5748 10.216 82.5428 10.248C82.5268 10.264 82.5188 10.296 82.5188 10.344V20.376C82.5188 20.424 82.5268 20.464 82.5428 20.496C82.5748 20.512 82.6148 20.52 82.6628 20.52H92.6948C92.7428 20.52 92.7748 20.512 92.7908 20.496C92.8228 20.464 92.8388 20.424 92.8388 20.376V17.544H89.0228V14.064H96.3428V20.544C96.3428 21.184 96.1828 21.768 95.8628 22.296C95.5428 22.808 95.1188 23.224 94.5908 23.544C94.0788 23.848 93.5028 24 92.8628 24H82.5188ZM126.369 24C125.745 24 125.169 23.848 124.641 23.544C124.113 23.224 123.697 22.808 123.393 22.296C123.089 21.768 122.937 21.184 122.937 20.544V19.08H126.393V20.376C126.393 20.424 126.401 20.464 126.417 20.496C126.449 20.512 126.481 20.52 126.513 20.52H136.569C136.601 20.52 136.633 20.512 136.665 20.496C136.697 20.464 136.713 20.424 136.713 20.376V17.232C136.713 17.2 136.697 17.176 136.665 17.16C136.633 17.128 136.601 17.112 136.569 17.112H126.369C125.745 17.112 125.169 16.96 124.641 16.656C124.113 16.336 123.697 15.912 123.393 15.384C123.089 14.856 122.937 14.28 122.937 13.656V10.176C122.937 9.536 123.089 8.96 123.393 8.448C123.697 7.92 124.113 7.504 124.641 7.2C125.169 6.88 125.745 6.72 126.369 6.72H136.761C137.385 6.72 137.953 6.88 138.465 7.2C138.993 7.504 139.417 7.92 139.737 8.448C140.057 8.96 140.217 9.536 140.217 10.176V11.64H136.713V10.344C136.713 10.296 136.697 10.264 136.665 10.248C136.633 10.216 136.601 10.2 136.569 10.2H126.513C126.481 10.2 126.449 10.216 126.417 10.248C126.401 10.264 126.393 10.296 126.393 10.344V13.488C126.393 13.52 126.401 13.552 126.417 13.584C126.449 13.6 126.481 13.608 126.513 13.608H136.761C137.385 13.608 137.953 13.768 138.465 14.088C138.993 14.392 139.417 14.808 139.737 15.336C140.057 15.864 140.217 16.44 140.217 17.064V20.544C140.217 21.184 140.057 21.768 139.737 22.296C139.417 22.808 138.993 23.224 138.465 23.544C137.953 23.848 137.385 24 136.761 24H126.369ZM166.908 24.336V20.352L172.812 16.944L166.908 13.536V9.6L177.084 15.456V18.432L166.908 24.336Z" fill="url(#paint0_linear_40_77)"/>
<defs>
<linearGradient id="paint0_linear_40_77" x1="0" y1="15" x2="177" y2="15" gradientUnits="userSpaceOnUse">
<stop stop-color="#FECDFB"/>
<stop offset="1" stop-color="#9447B3"/>
</linearGradient>
</defs>
</svg>
